<svg width="64" height="64" viewBox="0 0 64 64" fill="none" xmlns="http://www.w3.org/2000/svg">
  <rect width="64" height="64" rx="18" fill="#14221D"/>
  <circle cx="32" cy="32" r="23" stroke="#C7FF4A" stroke-opacity="0.28"/>
  <circle cx="49" cy="17" r="3" fill="#C7FF4A"/>
  <path d="M42.5 23.5C40.2 20.9 36.9 19.5 33 19.5C25.8 19.5 20.5 24.7 20.5 32C20.5 39.3 25.8 44.5 33 44.5C37 44.5 40.3 43 42.7 40.2" stroke="white" stroke-width="5" stroke-linecap="round"/>
  <path d="M48.5 23.5C46.2 20.9 42.9 19.5 39 19.5C31.8 19.5 26.5 24.7 26.5 32C26.5 39.3 31.8 44.5 39 44.5C43 44.5 46.3 43 48.7 40.2" stroke="#6CE5BC" stroke-width="3" stroke-linecap="round"/>
</svg>
